<?xml version="1.0" standalone="no"?>
<!DOCTYPE svg PUBLIC "-//W3C//DTD SVG 20010904//EN"
 "http://www.w3.org/TR/2001/REC-SVG-20010904/DTD/svg10.dtd">
<svg version="1.0" xmlns="http://www.w3.org/2000/svg"
 width="992.000000pt" height="992.000000pt" viewBox="0 0 992.000000 992.000000"
 preserveAspectRatio="xMidYMid meet">
<metadata>
Created by potrace 1.14, written by Peter Selinger 2001-2017
</metadata>
<g transform="translate(0.000000,992.000000) scale(0.100000,-0.100000)"
fill="#000000" stroke="none">
<path d="M9470 8633 c-53 -15 -105 -39 -140 -63 -39 -28 -171 -100 -190 -105
-3 -1 -27 -12 -55 -24 -70 -32 -197 -82 -216 -86 -9 -2 -47 -13 -85 -24 -177
-52 -493 -123 -609 -136 -33 -4 -69 -9 -80 -11 -35 -7 -178 -6 -225 1 -25 3
-53 7 -62 9 -10 1 -21 5 -24 9 -4 4 -13 7 -20 7 -7 0 -25 5 -41 12 -15 6 -35
13 -43 15 -27 6 -110 9 -116 4 -2 -3 -17 -7 -32 -9 -65 -8 -116 -48 -325 -255
-248 -246 -414 -403 -547 -516 -155 -132 -203 -241 -127 -287 42 -25 48 -25
152 -25 74 0 94 4 117 21 27 20 58 27 58 12 0 -12 51 -31 98 -37 56 -7 85 -22
75 -39 -5 -7 -32 -35 -62 -62 -32 -30 -75 -85 -107 -141 -30 -50 -92 -145
-139 -210 -46 -65 -90 -129 -97 -143 -7 -14 -16 -27 -19 -30 -4 -3 -32 -52
-63 -110 -31 -58 -77 -127 -101 -154 -44 -50 -102 -153 -108 -195 -2 -12 -19
-36 -38 -54 -19 -18 -56 -59 -84 -91 -27 -32 -61 -62 -75 -68 -24 -9 -190 -46
-240 -53 -14 -2 -49 -13 -78 -24 -59 -24 -74 -26 -51 -8 8 7 33 27 55 45 l39
33 -45 -17 c-25 -10 -47 -20 -50 -24 -8 -9 -315 -155 -315 -150 0 4 -82 -12
-111 -21 -38 -12 -70 -19 -109 -26 -16 -3 -43 -16 -58 -29 -16 -13 -34 -21
-40 -17 -7 4 -48 8 -92 9 -44 0 -97 6 -117 13 l-37 12 50 77 c27 42 69 99 92
126 23 27 46 56 51 65 5 9 19 28 30 42 12 14 27 35 34 45 7 10 28 42 47 69 76
109 129 192 154 241 14 28 53 80 85 115 55 59 156 201 156 220 0 23 58 128 86
156 18 17 42 51 54 75 12 24 27 52 33 63 6 11 17 34 25 50 9 17 24 42 34 58
11 15 17 27 14 27 -3 0 10 25 29 55 19 30 35 59 35 65 0 5 4 10 8 10 11 0 48
87 63 146 9 35 9 58 0 96 -6 27 -11 60 -11 73 0 24 -62 100 -73 88 -4 -3 -7
-1 -7 5 0 34 -244 45 -391 17 -13 -3 -41 -7 -64 -10 -62 -9 -186 -54 -235 -85
-8 -6 -34 -20 -57 -32 -24 -12 -43 -26 -43 -30 0 -4 -5 -8 -12 -8 -16 0 -138
-93 -245 -187 -49 -43 -106 -91 -127 -108 -21 -16 -48 -38 -60 -49 -11 -10
-41 -35 -66 -55 -25 -20 -52 -44 -61 -53 -9 -10 -20 -18 -24 -18 -4 0 -15 -8
-24 -18 -13 -14 -103 -88 -181 -149 -8 -6 -51 -40 -95 -75 -44 -35 -98 -76
-120 -93 -69 -51 -94 -77 -115 -117 -11 -21 -20 -43 -20 -47 0 -16 130 -70
178 -75 92 -9 150 -41 122 -66 -5 -4 -116 -179 -163 -255 -6 -11 -14 -22 -17
-25 -3 -3 -21 -27 -39 -55 -19 -27 -57 -77 -83 -110 -27 -33 -91 -118 -143
-190 -52 -71 -98 -135 -103 -141 -5 -6 -29 -44 -54 -86 -39 -67 -71 -114 -103
-151 -5 -7 -25 -32 -44 -57 -37 -50 -71 -79 -99 -85 -9 -3 -36 -9 -60 -15 -24
-6 -47 -8 -53 -5 -5 4 -9 2 -9 -2 0 -5 -8 -10 -17 -11 -47 -5 -101 -22 -228
-72 -136 -54 -316 -138 -327 -154 -4 -6 -8 -8 -8 -4 0 4 -28 -9 -63 -29 -34
-20 -72 -41 -84 -47 -13 -6 -23 -14 -23 -18 0 -5 -4 -8 -10 -8 -16 0 -113 -66
-156 -107 -81 -76 -100 -135 -58 -176 18 -17 36 -22 81 -24 32 -1 58 -2 58 -3
0 -1 59 -3 130 -4 78 -1 139 -6 151 -14 34 -19 49 -104 31 -177 -12 -46 -86
-175 -198 -342 -38 -57 -69 -105 -69 -108 0 -2 -6 -13 -14 -22 -46 -57 -116
-153 -111 -153 8 0 -12 -25 -75 -89 -78 -81 -95 -102 -179 -226 -41 -60 -77
-112 -80 -115 -4 -3 -18 -21 -33 -42 -15 -20 -33 -42 -40 -50 -7 -7 -26 -31
-42 -53 -17 -22 -33 -42 -36 -45 -3 -3 -37 -45 -75 -95 -38 -49 -74 -96 -79
-102 -6 -7 -24 -31 -41 -53 -16 -23 -40 -52 -52 -66 -11 -14 -36 -44 -55 -67
-62 -78 -121 -142 -272 -292 -83 -83 -162 -164 -176 -181 -25 -30 -132 -123
-184 -159 -15 -11 -34 -25 -41 -32 -6 -6 -59 -49 -115 -94 -96 -76 -144 -109
-360 -244 -44 -27 -80 -53 -80 -57 0 -5 -5 -8 -11 -8 -18 0 -107 -91 -124
-127 -22 -46 -14 -98 21 -134 15 -15 30 -28 33 -27 3 0 8 -1 11 -2 74 -28 184
-13 308 42 26 12 49 22 52 23 3 0 27 11 55 24 27 13 54 24 60 26 5 1 21 6 35
12 14 5 61 22 105 37 44 15 89 32 100 36 20 9 60 22 80 26 6 1 57 19 115 39
58 20 112 38 121 40 9 2 35 13 57 24 22 11 50 22 63 25 13 2 31 7 39 10 8 3
31 7 52 10 20 3 58 13 85 23 26 9 84 18 128 19 44 2 91 5 105 8 72 15 89 18
140 22 30 3 68 5 84 4 47 -1 149 -16 216 -30 93 -21 184 -15 235 13 11 6 22
12 25 12 13 2 78 40 105 62 17 13 35 27 40 31 6 4 39 32 75 62 36 30 81 66 99
80 18 14 40 32 49 41 10 8 64 51 120 95 194 148 267 205 285 219 9 8 20 15 23
15 3 0 11 6 18 13 7 6 25 21 40 32 15 11 37 28 48 37 12 10 25 18 29 18 4 0
14 6 21 13 7 6 31 24 53 38 86 56 149 136 141 180 -8 50 -81 94 -149 91 -18
-1 -99 -4 -182 -6 -82 -2 -190 -7 -240 -11 -49 -4 -107 -8 -128 -10 -21 -1
-46 -10 -57 -20 -19 -17 -22 -17 -57 -2 -21 9 -60 18 -88 21 -85 7 -106 23
-60 44 35 16 123 82 168 126 21 20 39 36 40 36 6 0 154 138 236 221 91 92 164
173 221 248 19 25 43 55 53 65 9 11 17 24 17 28 0 8 9 21 38 53 6 7 12 17 12
20 0 4 14 24 30 45 17 21 30 43 30 49 0 6 4 11 8 11 11 0 111 147 143 210 13
25 28 50 34 57 5 6 21 28 35 48 14 21 33 46 43 56 9 10 16 20 15 22 -3 3 93
150 102 157 4 3 26 39 50 80 38 65 107 168 140 207 5 7 10 15 10 19 0 14 63
84 94 103 31 20 126 48 184 56 15 2 27 4 27 5 0 1 11 4 24 6 14 2 124 38 245
79 122 40 246 79 276 84 30 6 66 13 79 16 31 6 90 24 116 35 11 5 39 14 62 20
23 6 47 18 52 27 8 15 14 15 51 4 23 -7 72 -14 108 -16 37 -2 79 -10 95 -18
l27 -14 -50 -64 c-27 -35 -56 -71 -63 -79 -19 -22 -40 -57 -87 -146 -23 -43
-56 -101 -73 -129 -68 -111 -193 -301 -209 -319 -18 -20 -59 -100 -79 -155 -7
-18 -26 -48 -42 -65 -16 -17 -41 -49 -55 -71 -15 -22 -30 -42 -33 -45 -4 -3
-17 -25 -30 -50 -13 -25 -27 -49 -31 -55 -15 -18 -93 -136 -115 -173 -45 -76
-143 -278 -147 -304 -3 -15 -7 -32 -10 -37 -3 -5 -8 -26 -11 -47 -4 -22 -8
-47 -11 -56 -3 -9 -6 -25 -8 -35 -2 -10 -11 -46 -20 -79 -28 -107 -27 -150 6
-239 16 -44 31 -96 34 -115 8 -52 31 -80 82 -101 26 -11 61 -26 77 -34 100
-49 221 -74 339 -70 51 1 97 5 103 8 5 3 22 8 37 11 15 3 47 14 70 25 23 12
47 21 53 21 6 0 13 3 15 8 2 4 28 20 58 36 30 16 96 59 145 95 96 70 98 72
161 123 22 18 57 47 78 63 22 17 44 35 50 40 10 9 87 69 111 87 6 4 26 20 45
36 19 15 73 57 120 93 47 35 94 72 104 81 11 10 23 18 27 18 4 0 14 6 21 13
28 26 94 75 123 91 50 27 67 40 105 76 53 49 72 83 66 115 -5 29 -52 85 -70
85 -5 0 -18 8 -28 17 -14 12 -39 17 -96 18 -104 2 -157 13 -177 35 -19 21 -22
82 -6 123 6 15 8 27 5 27 -4 0 -1 7 6 15 7 8 10 15 6 15 -9 0 91 190 142 270
51 81 183 298 198 325 22 43 68 120 74 125 3 3 11 17 19 33 8 15 18 27 23 27
4 0 8 5 8 11 0 6 10 25 22 42 13 18 23 34 23 37 1 9 60 95 68 98 4 2 5 7 2 12
-3 5 1 14 8 22 12 12 45 63 77 119 94 166 136 235 142 237 4 2 8 10 8 17 0 8
6 20 13 27 6 7 18 25 25 39 8 14 32 50 54 80 23 29 52 74 65 99 55 104 90 163
183 300 97 146 250 387 250 396 0 3 11 20 25 38 14 18 25 36 25 40 0 4 9 19
19 34 10 15 74 117 142 227 67 110 152 247 187 305 36 58 74 121 84 140 11 19
25 42 32 50 6 8 17 26 25 40 42 72 126 207 139 223 8 9 11 17 6 17 -5 0 -4 4
2 8 5 4 28 36 49 72 21 36 53 84 72 107 18 23 33 44 33 48 0 24 235 215 264
215 19 0 195 95 269 146 48 32 95 64 104 69 9 6 26 18 37 28 11 9 25 17 32 17
7 0 14 4 16 8 2 5 32 28 67 51 76 52 215 162 254 203 15 15 29 28 31 28 8 0
172 173 188 198 29 47 29 86 0 131 -15 24 -35 42 -47 43 -26 2 -49 5 -55 8
-17 7 -72 4 -110 -7z"/>
</g>
</svg>
